<?xml version="1.0" encoding="UTF-8"?>
<svg version="1.1" xmlns="http://www.w3.org/2000/svg" width="64" height="39">
<path d="M0 0 C1.32 0 2.64 0 4 0 C4.99 2.97 5.98 5.94 7 9 C8.49403054 6.01193893 9.79310745 3.10343799 11 0 C12.32 0 13.64 0 15 0 C15.99 3.3 16.98 6.6 18 10 C19.32 6.7 20.64 3.4 22 0 C23.32 0 24.64 0 26 0 C25.35346673 6.95023264 23.13972752 13.38177303 21 20 C19.35 20 17.7 20 16 20 C15.01 16.7 14.02 13.4 13 10 C12.01 13.3 11.02 16.6 10 20 C8.35 20 6.7 20 5 20 C4.1572257 17.60712296 3.32562998 15.21128981 2.5 12.8125 C2.26152344 12.13896484 2.02304687 11.46542969 1.77734375 10.77148438 C0.51272408 7.06795533 -0.30451221 3.92059464 0 0 Z " fill="#242E3D" transform="translate(20,0)"/>
<path d="M0 0 C5.4331871 0.9038194 10.38732234 2.91973763 15.52734375 4.84375 C27.9275791 8.97251227 40.63495064 7.32375282 53 4 C54.66390903 3.65316338 56.32978584 3.31507703 58 3 C58 3.99 58 4.98 58 6 C46.33230985 13.02713157 34.21192307 15.64157702 20.7421875 12.7578125 C12.99014825 10.61551106 5.84706118 7.71640059 0 2 C0 1.34 0 0.68 0 0 Z " fill="#FF9900" transform="translate(0,25)"/>
<path d="M0 0 C0.78246094 -0.01417969 1.56492187 -0.02835937 2.37109375 -0.04296875 C4.5625 0.1875 4.5625 0.1875 7.5625 2.1875 C8.71820704 5.65462111 8.89085293 8.7289956 9.125 12.375 C9.25068359 14.28345703 9.25068359 14.28345703 9.37890625 16.23046875 C9.43949219 17.20628906 9.50007813 18.18210937 9.5625 19.1875 C7.07185112 19.87457555 5.18363708 20.1875 2.5625 20.1875 C1.923125 20.24550781 1.28375 20.30351562 0.625 20.36328125 C-1.48389926 20.50307571 -3.35022913 20.533935 -5.4375 20.1875 C-7.5625 18 -7.5625 18 -8.4375 15.1875 C-7.62545587 12.01314566 -6.75569425 10.50569425 -4.4375 8.1875 C-1.74910615 7.91758094 0.85391936 8.10012643 3.5625 8.1875 C3.2325 7.1975 2.9025 6.2075 2.5625 5.1875 C-0.4075 5.1875 -3.3775 5.1875 -6.4375 5.1875 C-6.4375 3.8675 -6.4375 2.5475 -6.4375 1.1875 C-4.0978331 0.01766655 -2.60358473 0.0213759 0 0 Z M-3.4375 13.1875 C-2.7775 14.5075 -2.1175 15.8275 -1.4375 17.1875 C0.2125 16.5275 1.8625 15.8675 3.5625 15.1875 C3.5625 14.1975 3.5625 13.2075 3.5625 12.1875 C0.07668144 10.9854936 -0.11742344 10.97411563 -3.4375 13.1875 Z " fill="#242E3D" transform="translate(10.4375,-0.1875)"/>
<path d="M0 0 C1.21236328 0.04060547 1.21236328 0.04060547 2.44921875 0.08203125 C3.06410156 0.11683594 3.67898437 0.15164063 4.3125 0.1875 C4.6425 1.8375 4.9725 3.4875 5.3125 5.1875 C2.6725 5.1875 0.0325 5.1875 -2.6875 5.1875 C-0.73347168 7.38446122 -0.73347168 7.38446122 2.3125 8.5 C5.3125 10.1875 5.3125 10.1875 6.8125 12.625 C7.3125 15.1875 7.3125 15.1875 6.5625 17.4375 C5.3125 19.1875 5.3125 19.1875 3.3125 20.1875 C1.60547265 20.25746014 -0.10418003 20.27190154 -1.8125 20.25 C-2.72257812 20.24097656 -3.63265625 20.23195313 -4.5703125 20.22265625 C-5.61832031 20.20525391 -5.61832031 20.20525391 -6.6875 20.1875 C-7.0175 18.5375 -7.3475 16.8875 -7.6875 15.1875 C-5.0475 15.5175 -2.4075 15.8475 0.3125 16.1875 C0.9725 15.1975 1.6325 14.2075 2.3125 13.1875 C-0.6575 12.1975 -3.6275 11.2075 -6.6875 10.1875 C-7.375 6.875 -7.375 6.875 -7.6875 3.1875 C-5.513217 0.04051145 -3.69350641 -0.16058724 0 0 Z " fill="#242E3C" transform="translate(54.6875,-0.1875)"/>
<path d="M0 0 C0.50130606 5.26371362 -0.68831371 7.9090934 -4 12 C-4.66 12 -5.32 12 -6 12 C-5.34 9.03 -4.68 6.06 -4 3 C-6.97 3 -9.94 3 -13 3 C-11 0 -11 0 -9.3125 -0.75 C-6.09886176 -1.09742035 -3.17025463 -0.54869792 0 0 Z " fill="#FF9900" transform="translate(64,24)"/>
</svg>
